<svg xmlns="http://www.w3.org/2000/svg" viewBox="0 0 465 336" width="44" height="32">
        <path d="M457.831,25.846c-8.951-15.391-25.42-25.846-44.498-25.846h-180.833v25.846h225.331ZM0,258.462h465v25.846H0v-25.846ZM232.5,155.077h232.5v25.846h-232.5v-25.846ZM232.5,103.385h232.5v25.846h-232.5v-25.846ZM0,206.769h465v25.846H0v-25.846ZM51.667,336h361.667c19.078,0,35.547-10.455,44.498-25.846H7.169c8.951,15.391,25.42,25.846,44.498,25.846ZM232.5,51.692h232.5v25.846h-232.5v-25.846Z" fill="#b22334"></path><path d="M.878,293.082c.22,1.202.465,2.404.762,3.58.336,1.305.749,2.559,1.188,3.825,1.15,3.347,2.545,6.578,4.301,9.602l.039.065h450.662l.026-.052c1.744-3.011,3.139-6.242,4.288-9.576.439-1.279.865-2.559,1.201-3.89.297-1.163.542-2.352.762-3.554.53-2.843.891-5.764.891-8.775H0c0,3.011.362,5.919.878,8.775ZM0,232.615h465v25.846H0v-25.846ZM0,180.923v25.846h465v-25.846H0ZM232.5,129.231h232.5v25.846h-232.5v-25.846ZM232.5,77.538h232.5v25.846h-232.5v-25.846ZM0,51.692c0-3.011.387-5.906.878-8.775-.517,2.856-.878,5.764-.878,8.775ZM7.169,25.846l-.039.065.039-.065ZM1.653,39.338c.323-1.318.775-2.572,1.188-3.838-.439,1.266-.852,2.533-1.188,3.838ZM232.5,51.692h232.5c0-3.011-.362-5.932-.891-8.788-.22-1.189-.452-2.378-.762-3.541-.349-1.331-.762-2.623-1.214-3.903-1.15-3.334-2.545-6.552-4.288-9.563.013-.013,0-.039-.013-.052h-225.331v25.846Z" fill="#eee"></path><path d="M232.5,0H51.667C23.134,0,0,23.145,0,51.692v129.231h232.5V0Z" fill="#3c3b6e"></path><path d="M25.846,35.228l7.983,5.802-3.048,9.369,7.97-5.79,7.983,5.79-3.048-9.369,7.983-5.802h-9.868l-3.048-9.382-3.035,9.382h-9.868ZM51.68,61.074l7.983,5.802-3.048,9.369,7.97-5.79,7.983,5.79-3.048-9.369,7.983-5.802h-9.868l-3.048-9.382-3.035,9.382h-9.868ZM103.346,61.074l7.983,5.802-3.048,9.369,7.97-5.79,7.983,5.79-3.048-9.369,7.983-5.802h-9.868l-3.048-9.382-3.035,9.382h-9.868ZM155.013,61.074l7.983,5.802-3.048,9.369,7.97-5.79,7.983,5.79-3.048-9.369,7.983-5.802h-9.868l-3.048-9.382-3.035,9.382h-9.868ZM51.68,112.767l7.983,5.802-3.048,9.369,7.97-5.79,7.983,5.79-3.048-9.369,7.983-5.802h-9.868l-3.048-9.382-3.035,9.382h-9.868ZM103.346,112.767l7.983,5.802-3.048,9.369,7.97-5.79,7.983,5.79-3.048-9.369,7.983-5.802h-9.868l-3.048-9.382-3.035,9.382h-9.868ZM155.013,112.767l7.983,5.802-3.048,9.369,7.97-5.79,7.983,5.79-3.048-9.369,7.983-5.802h-9.868l-3.048-9.382-3.035,9.382h-9.868ZM77.513,35.228l7.983,5.802-3.048,9.369,7.97-5.79,7.983,5.79-3.048-9.369,7.983-5.802h-9.868l-3.048-9.382-3.035,9.382h-9.868ZM129.18,35.228l7.983,5.802-3.048,9.369,7.97-5.79,7.983,5.79-3.048-9.369,7.983-5.802h-9.868l-3.048-9.382-3.035,9.382h-9.868ZM180.846,35.228l7.983,5.802-3.048,9.369,7.97-5.79,7.983,5.79-3.048-9.369,7.983-5.802h-9.868l-3.048-9.382-3.035,9.382h-9.868ZM25.846,86.921l7.983,5.802-3.048,9.369,7.97-5.79,7.983,5.79-3.048-9.369,7.983-5.802h-9.868l-3.048-9.382-3.035,9.382h-9.868ZM82.447,102.092l7.97-5.79,7.983,5.79-3.048-9.369,7.983-5.802h-9.868l-3.048-9.382-3.035,9.382h-9.868l7.983,5.802-3.048,9.369ZM129.18,86.921l7.983,5.802-3.048,9.369,7.97-5.79,7.983,5.79-3.048-9.369,7.983-5.802h-9.868l-3.048-9.382-3.035,9.382h-9.868ZM180.846,86.921l7.983,5.802-3.048,9.369,7.97-5.79,7.983,5.79-3.048-9.369,7.983-5.802h-9.868l-3.048-9.382-3.035,9.382h-9.868ZM25.846,138.613l7.983,5.802-3.048,9.369,7.97-5.79,7.983,5.79-3.048-9.369,7.983-5.802h-9.868l-3.048-9.382-3.035,9.382h-9.868ZM82.447,153.785l7.97-5.79,7.983,5.79-3.048-9.369,7.983-5.802h-9.868l-3.048-9.382-3.035,9.382h-9.868l7.983,5.802-3.048,9.369ZM129.18,138.613l7.983,5.802-3.048,9.369,7.97-5.79,7.983,5.79-3.048-9.369,7.983-5.802h-9.868l-3.048-9.382-3.035,9.382h-9.868ZM180.846,138.613l7.983,5.802-3.048,9.369,7.97-5.79,7.983,5.79-3.048-9.369,7.983-5.802h-9.868l-3.048-9.382-3.035,9.382h-9.868Z" fill="#fff"></path>
    </svg>